PathFileType	4	(X/Y/Z)	D:\TRACE\spotREDO_2-26-24\spot_Both_Motion_3_5-v60.trc
DataRate	CameraRate	NumFrames	NumMarkers	Units	OrigDataRate	OrigDataStartFrame	OrigNumFrames
100.00	100.00	      31	9	mm	100.00	4376	      7000
Frame#	Time	front left toe			Front right toe			aft left toe			aft right toe			Arm			FL body			FR body			AL Body			AR Body			
		X1	Y1	Z1	X2	Y2	Z2	X3	Y3	Z3	X4	Y4	Z4	X5	Y5	Z5	X6	Y6	Z6	X7	Y7	Z7	X8	Y8	Z8	X9	Y9	Z9	

4376	43.750	-225.08913	-37.04640	-541.82275	182.17558	-26.11194	-415.09286	-267.54053	27.13591	97.86262	139.22430	43.75345	177.27383	56.67140	574.71967	-820.40344	-93.74622	457.58060	-535.36188	61.09779	462.41367	-523.53363	-171.69121	597.02234	334.39108	-25.07309	591.76245	349.97015	
4377	43.760	-224.89279	-36.80882	-541.87036	182.51064	-26.31615	-415.06870	-267.53333	26.94325	97.92380	138.91058	43.25532	177.09857	56.86461	574.67542	-820.35248	-94.21493	457.90421	-536.09082	60.39795	462.52618	-524.09698	-173.28096	596.95587	333.59821	-27.11981	591.19354	349.07684	
4378	43.770	-224.52148	-35.95696	-541.49768	182.77791	-26.23468	-414.89032	-267.49765	26.67373	97.92747	138.31985	42.37814	176.54439	57.57613	574.33612	-820.21753	-94.62581	458.26688	-537.11987	60.20146	462.56024	-524.57703	-175.02805	596.83197	332.59933	-28.83978	590.86621	348.79819	
4379	43.780	-224.24844	-35.59204	-541.72961	183.03381	-25.84092	-414.69278	-267.53769	26.48039	98.04042	138.06918	42.39949	176.66669	57.89492	574.21082	-820.46503	-95.02003	458.40994	-537.77246	59.74371	462.56354	-525.27203	-176.50876	596.10773	331.62949	-30.25076	590.46472	348.11310	
4380	43.790	-224.06747	-35.11621	-541.61859	183.24428	-25.43829	-414.54675	-267.54654	26.31298	98.14751	138.11493	42.47303	176.91307	58.38793	574.12982	-820.59393	-95.37151	458.31750	-538.53632	59.53961	462.43918	-525.86102	-177.75720	595.71118	330.74176	-31.66203	590.23260	347.56491	
4381	43.800	-224.49939	-34.53083	-541.20282	183.31705	-25.05507	-414.61536	-267.59732	26.24626	98.16741	138.21152	42.61789	177.02493	58.59246	574.20721	-820.87817	-95.44366	457.94366	-539.21777	59.52306	461.89905	-525.65613	-179.09180	595.45886	330.07111	-32.99056	589.78461	346.74524	
4382	43.810	-224.11620	-34.80202	-541.49249	183.41656	-24.79009	-414.44177	-267.54669	26.17858	98.25890	138.21817	42.58693	177.07085	58.46212	574.26331	-821.35443	-95.75150	457.76016	-539.92200	59.28360	461.58524	-526.12952	-180.31943	595.02808	329.25302	-34.09033	589.38867	346.25803	
4383	43.820	-223.96429	-34.37836	-541.33179	183.34871	-24.63188	-414.41412	-267.53238	26.08467	98.17885	138.24168	42.48351	177.13152	57.99427	574.41608	-821.53046	-95.81927	457.49249	-540.60248	59.11492	461.41879	-526.48157	-181.13963	594.97491	328.87753	-35.08876	589.12427	345.76843	
4384	43.830	-223.73416	-33.99702	-541.32849	183.56396	-24.26585	-414.23621	-267.37286	26.00076	98.51748	138.31950	42.27500	177.31931	57.96666	574.60388	-821.70093	-95.96509	457.25113	-541.19922	59.00658	461.27060	-527.10022	-181.72223	594.48615	328.28900	-35.60682	588.58917	345.05154	
4385	43.840	-223.71512	-33.71147	-541.22919	183.65741	-23.96529	-414.19009	-267.28171	25.97518	98.58504	138.36168	42.11048	177.41164	57.61251	574.67145	-821.87561	-96.39336	457.00302	-541.62494	58.56915	461.17593	-527.70660	-182.15723	594.06061	327.84229	-36.04633	588.29834	344.64441	
4386	43.850	-223.71768	-33.38257	-541.06110	183.80202	-23.71237	-414.15662	-267.21902	25.84365	98.74452	138.46153	42.05013	177.44434	57.26214	574.80090	-822.04480	-96.70222	456.74634	-542.23151	58.03827	461.39539	-528.90765	-182.26515	593.05707	327.11093	-36.16886	587.87976	344.21182	
4387	43.860	-223.68309	-33.05690	-540.88031	183.75441	-23.45825	-414.23987	-267.12762	25.83352	98.78632	138.51677	41.95396	177.46124	56.88310	574.91718	-822.31616	-97.11851	456.41846	-542.66235	57.58696	461.17749	-529.54553	-182.04797	592.56232	326.73026	-36.14872	587.40881	343.64008	
4388	43.870	-224.11983	-32.40596	-540.30756	183.65169	-23.09181	-414.27954	-266.99484	25.80145	98.85777	138.61026	41.88671	177.48633	56.53375	575.04602	-822.47510	-97.80569	456.20621	-543.12225	57.27681	460.56226	-529.47015	-181.76378	591.97845	326.26334	-36.23841	586.88611	342.98425	
4389	43.880	-223.78035	-32.63598	-540.59595	183.59891	-22.74958	-414.36459	-266.88089	25.73926	98.88438	138.84958	41.85590	177.48383	56.52190	575.14703	-822.32404	-98.29191	455.94916	-543.55267	56.72273	460.47046	-530.09644	-181.68776	591.52521	325.91550	-35.84187	586.56921	342.56494	
4390	43.890	-223.77771	-32.34830	-540.56750	183.60297	-22.39782	-414.35806	-266.63464	25.66275	98.99887	139.50114	41.80543	177.57506	56.65953	575.24854	-822.07544	-98.76540	455.86740	-544.09003	56.26023	460.30002	-530.73859	-181.54588	591.08923	325.52356	-35.20230	586.07678	342.06763	
4391	43.900	-223.80095	-32.13954	-540.49512	183.66208	-22.10064	-414.15103	-266.47891	25.74628	99.11460	139.76311	41.60778	177.61668	57.11780	575.41412	-821.62561	-99.26283	455.86884	-544.52338	55.72218	460.43408	-531.44727	-181.08617	590.45410	325.31299	-34.69727	585.42938	341.57355	
4392	43.910	-223.69766	-31.93520	-540.38361	183.85835	-21.89012	-414.07108	-266.28070	25.78695	99.23335	139.79616	41.32001	177.68787	57.32881	575.57947	-821.43341	-99.49377	455.85062	-544.99890	55.48352	460.42960	-531.89771	-180.84978	590.34155	325.19745	-34.61238	585.01038	341.19229	
4393	43.920	-223.57469	-31.69553	-540.32990	183.93929	-21.68514	-414.09238	-266.03461	25.70048	99.33656	139.83318	41.19196	177.79288	57.60017	575.74780	-821.39825	-99.57124	455.76642	-545.47083	55.56028	460.40350	-532.35107	-180.69420	589.77533	324.88461	-34.48587	584.35431	340.72470	
4394	43.930	-223.45137	-31.38487	-540.32141	184.12311	-21.49079	-414.01187	-265.80869	25.56353	99.21481	139.83430	41.12019	177.85750	57.66973	576.02106	-821.40942	-99.59386	455.88638	-546.06152	55.39587	460.52173	-532.92212	-180.49715	588.58612	324.17697	-34.68212	583.51288	340.23450	
4395	43.940	-223.59692	-30.47996	-539.79608	184.32036	-21.31220	-413.95834	-265.74048	25.53062	99.27554	139.83707	41.02853	177.91934	58.30446	576.32336	-821.32593	-99.58703	456.14655	-546.61731	55.46570	460.72827	-533.58044	-180.74600	588.39130	324.02521	-34.53715	583.06128	340.09747	
4396	43.950	-223.05188	-30.60212	-540.19446	184.46608	-21.12205	-413.97339	-265.68457	25.45313	99.43866	139.97212	40.98907	178.00342	58.90347	576.49512	-821.41608	-99.47612	456.43665	-546.97528	55.53656	460.85696	-533.92371	-180.61301	587.81335	323.71198	-34.46386	582.57465	339.61154	
4397	43.960	-222.96344	-30.56357	-540.08081	184.55942	-21.16730	-413.95087	-265.56055	25.37845	99.76098	139.85136	40.93356	178.05635	59.23448	577.38135	-821.68555	-99.41871	456.48416	-547.64484	55.95180	460.75027	-534.26904	-180.99557	587.42462	323.12964	-34.45716	581.95935	339.27176	
4398	43.970	-222.79448	-30.80444	-540.51514	184.59772	-21.10227	-413.98874	-265.51859	25.21306	99.87457	139.95686	40.98662	178.25296	59.09482	578.43420	-822.05896	-98.58477	456.68198	-548.31781	56.41290	460.70248	-534.66492	-180.82628	587.15411	322.82361	-34.65063	581.41821	338.89200	
4399	43.980	-222.84515	-30.65151	-540.46143	184.62686	-20.97200	-414.02670	-265.41934	25.01538	99.89996	139.97031	40.95563	178.31932	57.97261	580.79968	-822.89355	-98.04147	456.92261	-548.51599	56.73532	461.17484	-535.78400	-180.68451	587.20294	322.37662	-34.59370	580.98358	338.51480	
4400	43.990	-222.65689	-30.31483	-540.80341	184.85973	-20.87269	-414.05417	-265.35452	25.07497	99.65945	140.05437	40.96869	178.35181	57.70131	583.85248	-823.34796	-97.11594	457.76038	-548.94061	57.29718	461.54181	-535.94946	-180.64954	587.18744	321.93439	-34.55546	580.84088	338.34598	
4401	44.000	-222.20906	-29.63771	-540.59503	185.00148	-20.21487	-413.95837	-265.21497	24.97486	99.86861	140.11295	40.88037	178.41997	56.47609	587.83484	-823.40601	-96.38956	458.82455	-549.33270	58.33767	462.65366	-536.13385	-180.70381	586.47876	321.41110	-34.47715	580.57068	338.30701	
4402	44.010	-221.66313	-29.22978	-540.67487	185.16319	-20.10790	-413.97461	-265.15421	25.03580	99.90244	140.31866	40.89494	178.48866	55.44732	591.51776	-823.11395	-95.51481	460.32999	-549.48877	59.45325	464.07779	-535.59454	-180.42445	586.03760	321.28699	-34.39719	580.21417	338.25085	
4403	44.020	-221.30904	-28.84517	-540.67981	185.31827	-20.37674	-414.14517	-264.96219	25.00159	99.86868	140.49315	40.84800	178.59630	54.24418	595.13916	-823.19006	-94.85790	461.95786	-549.61450	60.24675	465.70093	-535.73401	-180.06575	585.44000	321.46362	-34.08072	579.72882	338.57150	
4404	44.030	-221.19456	-28.50132	-540.74310	185.54715	-20.19211	-414.09302	-264.77246	24.97677	99.94942	140.79941	40.71089	178.74040	53.28199	597.86951	-822.98389	-94.07235	463.91318	-549.80383	60.61057	467.68085	-535.79529	-179.74455	584.73676	321.72372	-33.33564	578.83179	338.80847	
4405	44.040	-221.18689	-28.15722	-540.83624	185.69534	-20.02502	-414.19608	-264.61078	25.01799	100.08969	141.39407	40.67480	178.82544	52.82110	599.81842	-822.74768	-93.99415	466.11935	-549.78674	60.81995	470.05203	-536.07709	-178.58560	583.79535	322.11716	-32.65896	578.07062	339.07315	
4406	44.050	-221.10751	-27.90271	-540.94275	185.87897	-19.72369	-414.29401	-264.39182	25.13885	100.25202	141.60301	40.56437	178.81689	52.32534	601.30756	-822.34149	-94.05003	468.42963	-549.72046	60.91104	472.23990	-535.98663	-177.46991	583.04590	322.87387	-31.31656	577.18134	339.38498	
